<?xml version="1.0" encoding="UTF-8" standalone="no"?>
<!DOCTYPE svg PUBLIC "-//W3C//DTD SVG 1.1//EN"
 "http://www.w3.org/Graphics/SVG/1.1/DTD/svg11.dtd">
<!-- Generated by graphviz version 2.40.1 (20161225.0304)
 -->
<!-- Title: controllers_diagram Pages: 1 -->
<svg width="522pt" height="298pt"
 viewBox="0.00 0.00 522.00 298.00" xmlns="http://www.w3.org/2000/svg" xmlns:xlink="http://www.w3.org/1999/xlink">
<g id="graph0" class="graph" transform="scale(1 1) rotate(0) translate(4 294)">
<title>controllers_diagram</title>
<polygon fill="transparent" stroke="transparent" points="-4,4 -4,-294 518,-294 518,4 -4,4"/>
<!-- _diagram_info -->
<g id="node1" class="node">
<title>_diagram_info</title>
<text text-anchor="start" x="308" y="-63.6" font-family="Times,serif" font-size="13.00" fill="#000000">Controllers diagram</text>
<text text-anchor="start" x="308" y="-49.6" font-family="Times,serif" font-size="13.00" fill="#000000">Date: May 15 2019 &#45; 00:06</text>
<text text-anchor="start" x="308" y="-35.6" font-family="Times,serif" font-size="13.00" fill="#000000">Migration version: 20190508095535</text>
<text text-anchor="start" x="308" y="-21.6" font-family="Times,serif" font-size="13.00" fill="#000000">Generated by RailRoady 1.5.3</text>
<text text-anchor="start" x="308" y="-7.6" font-family="Times,serif" font-size="13.00" fill="#000000">http://railroady.prestonlee.com</text>
</g>
<!-- ApplicationController -->
<g id="node2" class="node">
<title>ApplicationController</title>
<path fill="none" stroke="#000000" d="M147,-195.5C147,-195.5 259,-195.5 259,-195.5 265,-195.5 271,-201.5 271,-207.5 271,-207.5 271,-277.5 271,-277.5 271,-283.5 265,-289.5 259,-289.5 259,-289.5 147,-289.5 147,-289.5 141,-289.5 135,-283.5 135,-277.5 135,-277.5 135,-207.5 135,-207.5 135,-201.5 141,-195.5 147,-195.5"/>
<text text-anchor="middle" x="203" y="-274.3" font-family="Times,serif" font-size="14.00" fill="#000000">ApplicationController</text>
<polyline fill="none" stroke="#000000" points="135,-266.5 271,-266.5 "/>
<polyline fill="none" stroke="#000000" points="135,-242.5 271,-242.5 "/>
<polyline fill="none" stroke="#000000" points="135,-218.5 271,-218.5 "/>
<text text-anchor="start" x="143" y="-203.3" font-family="Times,serif" font-size="14.00" fill="#000000">_layout</text>
</g>
<!-- PagesController -->
<g id="node3" class="node">
<title>PagesController</title>
<path fill="none" stroke="#000000" d="M12,-90.5C12,-90.5 92,-90.5 92,-90.5 98,-90.5 104,-96.5 104,-102.5 104,-102.5 104,-186.5 104,-186.5 104,-192.5 98,-198.5 92,-198.5 92,-198.5 12,-198.5 12,-198.5 6,-198.5 0,-192.5 0,-186.5 0,-186.5 0,-102.5 0,-102.5 0,-96.5 6,-90.5 12,-90.5"/>
<text text-anchor="middle" x="52" y="-183.3" font-family="Times,serif" font-size="14.00" fill="#000000">PagesController</text>
<polyline fill="none" stroke="#000000" points="0,-175.5 104,-175.5 "/>
<text text-anchor="start" x="8" y="-160.3" font-family="Times,serif" font-size="14.00" fill="#000000">checkprofile</text>
<text text-anchor="start" x="8" y="-145.3" font-family="Times,serif" font-size="14.00" fill="#000000">index</text>
<polyline fill="none" stroke="#000000" points="0,-137.5 104,-137.5 "/>
<polyline fill="none" stroke="#000000" points="0,-113.5 104,-113.5 "/>
<text text-anchor="start" x="8" y="-98.3" font-family="Times,serif" font-size="14.00" fill="#000000">_layout</text>
</g>
<!-- UserprofilesController -->
<g id="node4" class="node">
<title>UserprofilesController</title>
<path fill="none" stroke="#000000" d="M147,-.5C147,-.5 262,-.5 262,-.5 268,-.5 274,-6.5 274,-12.5 274,-12.5 274,-156.5 274,-156.5 274,-162.5 268,-168.5 262,-168.5 262,-168.5 147,-168.5 147,-168.5 141,-168.5 135,-162.5 135,-156.5 135,-156.5 135,-12.5 135,-12.5 135,-6.5 141,-.5 147,-.5"/>
<text text-anchor="middle" x="204.5" y="-153.3" font-family="Times,serif" font-size="14.00" fill="#000000">UserprofilesController</text>
<polyline fill="none" stroke="#000000" points="135,-145.5 274,-145.5 "/>
<text text-anchor="start" x="143" y="-130.3" font-family="Times,serif" font-size="14.00" fill="#000000">create</text>
<text text-anchor="start" x="143" y="-115.3" font-family="Times,serif" font-size="14.00" fill="#000000">edit</text>
<text text-anchor="start" x="143" y="-100.3" font-family="Times,serif" font-size="14.00" fill="#000000">new</text>
<text text-anchor="start" x="143" y="-85.3" font-family="Times,serif" font-size="14.00" fill="#000000">show</text>
<text text-anchor="start" x="143" y="-70.3" font-family="Times,serif" font-size="14.00" fill="#000000">update</text>
<polyline fill="none" stroke="#000000" points="135,-62.5 274,-62.5 "/>
<polyline fill="none" stroke="#000000" points="135,-38.5 274,-38.5 "/>
<text text-anchor="start" x="143" y="-23.3" font-family="Times,serif" font-size="14.00" fill="#000000">_layout</text>
<text text-anchor="start" x="143" y="-8.3" font-family="Times,serif" font-size="14.00" fill="#000000">profile_params</text>
</g>
<!-- PostsController -->
<g id="node5" class="node">
<title>PostsController</title>
<path fill="none" stroke="#000000" d="M312,-105.5C312,-105.5 389,-105.5 389,-105.5 395,-105.5 401,-111.5 401,-117.5 401,-117.5 401,-261.5 401,-261.5 401,-267.5 395,-273.5 389,-273.5 389,-273.5 312,-273.5 312,-273.5 306,-273.5 300,-267.5 300,-261.5 300,-261.5 300,-117.5 300,-117.5 300,-111.5 306,-105.5 312,-105.5"/>
<text text-anchor="middle" x="350.5" y="-258.3" font-family="Times,serif" font-size="14.00" fill="#000000">PostsController</text>
<polyline fill="none" stroke="#000000" points="300,-250.5 401,-250.5 "/>
<text text-anchor="start" x="308" y="-235.3" font-family="Times,serif" font-size="14.00" fill="#000000">create</text>
<text text-anchor="start" x="308" y="-220.3" font-family="Times,serif" font-size="14.00" fill="#000000">destroy</text>
<text text-anchor="start" x="308" y="-205.3" font-family="Times,serif" font-size="14.00" fill="#000000">new</text>
<text text-anchor="start" x="308" y="-190.3" font-family="Times,serif" font-size="14.00" fill="#000000">show</text>
<polyline fill="none" stroke="#000000" points="300,-182.5 401,-182.5 "/>
<polyline fill="none" stroke="#000000" points="300,-158.5 401,-158.5 "/>
<text text-anchor="start" x="308" y="-143.3" font-family="Times,serif" font-size="14.00" fill="#000000">_layout</text>
<text text-anchor="start" x="308" y="-128.3" font-family="Times,serif" font-size="14.00" fill="#000000">find_post</text>
<text text-anchor="start" x="308" y="-113.3" font-family="Times,serif" font-size="14.00" fill="#000000">post_params</text>
</g>
</g>
</svg>
