<?xml version="1.0" encoding="UTF-8" standalone="no"?>
<!DOCTYPE svg PUBLIC "-//W3C//DTD SVG 1.1//EN"
 "http://www.w3.org/Graphics/SVG/1.1/DTD/svg11.dtd">
<!-- Generated by graphviz version 2.40.1 (20161225.0304)
 -->
<!-- Title: models_diagram Pages: 1 -->
<svg width="612pt" height="333pt"
 viewBox="0.00 0.00 612.34 333.00" xmlns="http://www.w3.org/2000/svg" xmlns:xlink="http://www.w3.org/1999/xlink">
<g id="graph0" class="graph" transform="scale(1 1) rotate(0) translate(4 329)">
<title>models_diagram</title>
<polygon fill="transparent" stroke="transparent" points="-4,4 -4,-329 608.3431,-329 608.3431,4 -4,4"/>
<!-- _diagram_info -->
<g id="node1" class="node">
<title>_diagram_info</title>
<text text-anchor="start" x="8" y="-273.6" font-family="Times,serif" font-size="13.00" fill="#000000">Models diagram</text>
<text text-anchor="start" x="8" y="-259.6" font-family="Times,serif" font-size="13.00" fill="#000000">Date: May 15 2019 &#45; 00:06</text>
<text text-anchor="start" x="8" y="-245.6" font-family="Times,serif" font-size="13.00" fill="#000000">Migration version: 20190508095535</text>
<text text-anchor="start" x="8" y="-231.6" font-family="Times,serif" font-size="13.00" fill="#000000">Generated by RailRoady 1.5.3</text>
<text text-anchor="start" x="8" y="-217.6" font-family="Times,serif" font-size="13.00" fill="#000000">http://railroady.prestonlee.com</text>
</g>
<!-- User -->
<g id="node2" class="node">
<title>User</title>
<path fill="none" stroke="#000000" d="M244,-173.5C244,-173.5 420,-173.5 420,-173.5 426,-173.5 432,-179.5 432,-185.5 432,-185.5 432,-312.5 432,-312.5 432,-318.5 426,-324.5 420,-324.5 420,-324.5 244,-324.5 244,-324.5 238,-324.5 232,-318.5 232,-312.5 232,-312.5 232,-185.5 232,-185.5 232,-179.5 238,-173.5 244,-173.5"/>
<text text-anchor="middle" x="332" y="-309.3" font-family="Times,serif" font-size="14.00" fill="#000000">User</text>
<polyline fill="none" stroke="#000000" points="232,-301.5 432,-301.5 "/>
<text text-anchor="start" x="240" y="-286.3" font-family="Times,serif" font-size="14.00" fill="#000000">id :integer</text>
<text text-anchor="start" x="240" y="-271.3" font-family="Times,serif" font-size="14.00" fill="#000000">email :varchar</text>
<text text-anchor="start" x="240" y="-256.3" font-family="Times,serif" font-size="14.00" fill="#000000">encrypted_password :varchar</text>
<text text-anchor="start" x="240" y="-241.3" font-family="Times,serif" font-size="14.00" fill="#000000">reset_password_token :varchar</text>
<text text-anchor="start" x="240" y="-226.3" font-family="Times,serif" font-size="14.00" fill="#000000">reset_password_sent_at :datetime</text>
<text text-anchor="start" x="240" y="-211.3" font-family="Times,serif" font-size="14.00" fill="#000000">remember_created_at :datetime</text>
<text text-anchor="start" x="240" y="-196.3" font-family="Times,serif" font-size="14.00" fill="#000000">created_at :datetime</text>
<text text-anchor="start" x="240" y="-181.3" font-family="Times,serif" font-size="14.00" fill="#000000">updated_at :datetime</text>
</g>
<!-- Userprofile -->
<g id="node3" class="node">
<title>Userprofile</title>
<path fill="none" stroke="#000000" d="M203.5,-8C203.5,-8 310.5,-8 310.5,-8 316.5,-8 322.5,-14 322.5,-20 322.5,-20 322.5,-117 322.5,-117 322.5,-123 316.5,-129 310.5,-129 310.5,-129 203.5,-129 203.5,-129 197.5,-129 191.5,-123 191.5,-117 191.5,-117 191.5,-20 191.5,-20 191.5,-14 197.5,-8 203.5,-8"/>
<text text-anchor="middle" x="257" y="-113.8" font-family="Times,serif" font-size="14.00" fill="#000000">Userprofile</text>
<polyline fill="none" stroke="#000000" points="191.5,-106 322.5,-106 "/>
<text text-anchor="start" x="199.5" y="-90.8" font-family="Times,serif" font-size="14.00" fill="#000000">id :integer</text>
<text text-anchor="start" x="199.5" y="-75.8" font-family="Times,serif" font-size="14.00" fill="#000000">user_id :integer</text>
<text text-anchor="start" x="199.5" y="-60.8" font-family="Times,serif" font-size="14.00" fill="#000000">name :varchar</text>
<text text-anchor="start" x="199.5" y="-45.8" font-family="Times,serif" font-size="14.00" fill="#000000">description :varchar</text>
<text text-anchor="start" x="199.5" y="-30.8" font-family="Times,serif" font-size="14.00" fill="#000000">created_at :datetime</text>
<text text-anchor="start" x="199.5" y="-15.8" font-family="Times,serif" font-size="14.00" fill="#000000">updated_at :datetime</text>
</g>
<!-- User&#45;&gt;Userprofile -->
<g id="edge2" class="edge">
<title>User&#45;&gt;Userprofile</title>
<path fill="none" stroke="#c76ea1" d="M297.4446,-165.8367C293.394,-156.0883 289.2974,-146.229 285.3452,-136.7175"/>
<ellipse fill="none" stroke="#c76ea1" cx="299.093" cy="-169.8038" rx="4" ry="4"/>
<ellipse fill="#c76ea1" stroke="#c76ea1" cx="283.7452" cy="-132.8666" rx="4" ry="4"/>
</g>
<!-- Post -->
<g id="node5" class="node">
<title>Post</title>
<path fill="none" stroke="#000000" d="M352.5,-.5C352.5,-.5 459.5,-.5 459.5,-.5 465.5,-.5 471.5,-6.5 471.5,-12.5 471.5,-12.5 471.5,-124.5 471.5,-124.5 471.5,-130.5 465.5,-136.5 459.5,-136.5 459.5,-136.5 352.5,-136.5 352.5,-136.5 346.5,-136.5 340.5,-130.5 340.5,-124.5 340.5,-124.5 340.5,-12.5 340.5,-12.5 340.5,-6.5 346.5,-.5 352.5,-.5"/>
<text text-anchor="middle" x="406" y="-121.3" font-family="Times,serif" font-size="14.00" fill="#000000">Post</text>
<polyline fill="none" stroke="#000000" points="340.5,-113.5 471.5,-113.5 "/>
<text text-anchor="start" x="348.5" y="-98.3" font-family="Times,serif" font-size="14.00" fill="#000000">id :integer</text>
<text text-anchor="start" x="348.5" y="-83.3" font-family="Times,serif" font-size="14.00" fill="#000000">user_id :integer</text>
<text text-anchor="start" x="348.5" y="-68.3" font-family="Times,serif" font-size="14.00" fill="#000000">title :varchar</text>
<text text-anchor="start" x="348.5" y="-53.3" font-family="Times,serif" font-size="14.00" fill="#000000">body :text</text>
<text text-anchor="start" x="348.5" y="-38.3" font-family="Times,serif" font-size="14.00" fill="#000000">created_at :datetime</text>
<text text-anchor="start" x="348.5" y="-23.3" font-family="Times,serif" font-size="14.00" fill="#000000">updated_at :datetime</text>
<text text-anchor="start" x="348.5" y="-8.3" font-family="Times,serif" font-size="14.00" fill="#000000">like :integer</text>
</g>
<!-- User&#45;&gt;Post -->
<g id="edge1" class="edge">
<title>User&#45;&gt;Post</title>
<path fill="none" stroke="#b6db4e" d="M366.0347,-165.9829C368.7525,-159.3537 371.4918,-152.672 374.1934,-146.0823"/>
<ellipse fill="none" stroke="#b6db4e" cx="364.4712" cy="-169.7965" rx="4" ry="4"/>
<polygon fill="#b6db4e" stroke="#b6db4e" points="374.3243,-145.7628 382.2814,-138.2172 376.221,-141.1365 378.1177,-136.5102 378.1177,-136.5102 378.1177,-136.5102 376.221,-141.1365 373.954,-134.8032 374.3243,-145.7628 374.3243,-145.7628"/>
</g>
<!-- ApplicationRecord -->
<g id="node4" class="node">
<title>ApplicationRecord</title>
<ellipse fill="none" stroke="#000000" cx="527" cy="-249" rx="77.1866" ry="18"/>
<text text-anchor="middle" x="527" y="-245.3" font-family="Times,serif" font-size="14.00" fill="#000000">ApplicationRecord</text>
</g>
</g>
</svg>
