<?xml version="1.0" encoding="UTF-8" standalone="no"?>
<!DOCTYPE svg PUBLIC "-//W3C//DTD SVG 1.1//EN"
 "http://www.w3.org/Graphics/SVG/1.1/DTD/svg11.dtd">
<!-- Generated by graphviz version 2.40.1 (20161225.0304)
 -->
<!-- Title: models_diagram Pages: 1 -->
<svg width="467pt" height="158pt"
 viewBox="0.00 0.00 467.34 158.00" xmlns="http://www.w3.org/2000/svg" xmlns:xlink="http://www.w3.org/1999/xlink">
<g id="graph0" class="graph" transform="scale(1 1) rotate(0) translate(4 154)">
<title>models_diagram</title>
<polygon fill="transparent" stroke="transparent" points="-4,4 -4,-154 463.3431,-154 463.3431,4 -4,4"/>
<!-- _diagram_info -->
<g id="node1" class="node">
<title>_diagram_info</title>
<text text-anchor="start" x="8" y="-135.6" font-family="Times,serif" font-size="13.00" fill="#000000">Models diagram</text>
<text text-anchor="start" x="8" y="-121.6" font-family="Times,serif" font-size="13.00" fill="#000000">Date: May 15 2019 &#45; 00:06</text>
<text text-anchor="start" x="8" y="-107.6" font-family="Times,serif" font-size="13.00" fill="#000000">Migration version: 20190508095535</text>
<text text-anchor="start" x="8" y="-93.6" font-family="Times,serif" font-size="13.00" fill="#000000">Generated by RailRoady 1.5.3</text>
<text text-anchor="start" x="8" y="-79.6" font-family="Times,serif" font-size="13.00" fill="#000000">http://railroady.prestonlee.com</text>
</g>
<!-- User -->
<g id="node2" class="node">
<title>User</title>
<ellipse fill="none" stroke="#000000" cx="259" cy="-111" rx="27.0966" ry="18"/>
<text text-anchor="middle" x="259" y="-107.3" font-family="Times,serif" font-size="14.00" fill="#000000">User</text>
</g>
<!-- Userprofile -->
<g id="node3" class="node">
<title>Userprofile</title>
<ellipse fill="none" stroke="#000000" cx="211" cy="-18" rx="50.8918" ry="18"/>
<text text-anchor="middle" x="211" y="-14.3" font-family="Times,serif" font-size="14.00" fill="#000000">Userprofile</text>
</g>
<!-- User&#45;&gt;Userprofile -->
<g id="edge2" class="edge">
<title>User&#45;&gt;Userprofile</title>
<path fill="none" stroke="#2f6e61" d="M246.3782,-86.5453C239.4572,-73.1359 230.8937,-56.544 223.9254,-43.043"/>
<ellipse fill="none" stroke="#2f6e61" cx="248.3615" cy="-90.3879" rx="4" ry="4"/>
<ellipse fill="#2f6e61" stroke="#2f6e61" cx="222.0735" cy="-39.4549" rx="4" ry="4"/>
</g>
<!-- Post -->
<g id="node5" class="node">
<title>Post</title>
<ellipse fill="none" stroke="#000000" cx="307" cy="-18" rx="27" ry="18"/>
<text text-anchor="middle" x="307" y="-14.3" font-family="Times,serif" font-size="14.00" fill="#000000">Post</text>
</g>
<!-- User&#45;&gt;Post -->
<g id="edge1" class="edge">
<title>User&#45;&gt;Post</title>
<path fill="none" stroke="#a6b0f1" d="M271.6731,-86.4459C278.3656,-73.4792 286.5829,-57.5581 293.4077,-44.3351"/>
<ellipse fill="none" stroke="#a6b0f1" cx="269.6385" cy="-90.3879" rx="4" ry="4"/>
<polygon fill="#a6b0f1" stroke="#a6b0f1" points="293.5028,-44.1507 302.0881,-37.3284 295.7961,-39.7075 298.0893,-35.2644 298.0893,-35.2644 298.0893,-35.2644 295.7961,-39.7075 294.0905,-33.2005 293.5028,-44.1507 293.5028,-44.1507"/>
</g>
<!-- ApplicationRecord -->
<g id="node4" class="node">
<title>ApplicationRecord</title>
<ellipse fill="none" stroke="#000000" cx="382" cy="-111" rx="77.1866" ry="18"/>
<text text-anchor="middle" x="382" y="-107.3" font-family="Times,serif" font-size="14.00" fill="#000000">ApplicationRecord</text>
</g>
</g>
</svg>
